<svg width="44px" height="30px" viewBox="299 4 44 30" version="1.1" xmlns="http://www.w3.org/2000/svg" xmlns:xlink="http://www.w3.org/1999/xlink">
    <!-- Generator: Sketch 40 (33762) - http://www.bohemiancoding.com/sketch -->
    <desc>Created with Sketch.</desc>
    <defs></defs>
    <g id="man-cycling" stroke="none" stroke-width="1" fill="none" fill-rule="evenodd" transform="translate(300.000000, 4.000000)">
        <g id="directions-bike">
            <path d="M31.0492021,5.09099437 C32.485871,5.09099437 33.6352061,3.95966229 33.6352061,2.54549719 C33.6352061,1.13133208 32.485871,0 31.0492021,0 C29.6125332,0 28.4631981,1.13133208 28.4631981,2.54549719 C28.4631981,3.95966229 29.6125332,5.09099437 31.0492021,5.09099437 L31.0492021,5.09099437 Z M35.3592088,15.2729831 C31.3365359,15.2729831 28.1758644,18.3841463 28.1758644,22.3438086 C28.1758644,26.3034709 31.3365359,29.4146341 35.3592088,29.4146341 C39.3818816,29.4146341 42.5425532,26.3035264 42.5425532,22.3438086 C42.5425532,18.3840909 39.3818816,15.2729831 35.3592088,15.2729831 L35.3592088,15.2729831 Z M35.3592088,27.2933865 C32.6295379,27.2933865 30.3308677,25.0306669 30.3308677,22.3438086 C30.3308677,19.6568395 32.6295379,17.3942308 35.3592088,17.3942308 C38.0888797,17.3942308 40.3875499,19.6568395 40.3875499,22.3438086 C40.3875499,25.0306669 38.0888797,27.2933865 35.3592088,27.2933865 L35.3592088,27.2933865 Z M29.3251995,12.4446529 L35.3592088,12.4446529 L35.3592088,9.89915572 L30.7618684,9.89915572 L28.0321975,5.23241088 C27.6011968,4.52532833 26.8828624,4.1010788 25.8771941,4.1010788 C25.1588597,4.1010788 24.5841922,4.38391182 24.1531915,4.80816135 L18.8375166,10.0405722 C18.406516,10.4648218 18.1191822,11.0304878 18.1191822,11.7375704 C18.1191822,12.5860694 18.5501828,13.4345685 19.2685173,13.858818 L24.1531915,16.6871482 L24.1531915,23.7579737 L26.7391955,23.7579737 L26.7391955,14.5659006 L23.5785239,12.1618199 L26.8828624,8.90924015 L29.3251995,12.4446529 L29.3251995,12.4446529 Z M15.2458444,15.2729831 C11.2231715,15.2729831 8.0625,18.3841463 8.0625,22.3438086 C8.0625,26.3034709 11.2231715,29.4146341 15.2458444,29.4146341 C19.2685173,29.4146341 22.4291888,26.3035264 22.4291888,22.3438086 C22.4291888,18.3840909 19.2685173,15.2729831 15.2458444,15.2729831 L15.2458444,15.2729831 Z M15.2458444,27.2933865 C12.5161735,27.2933865 10.2175033,25.0306669 10.2175033,22.3438086 C10.2175033,19.6568395 12.5161735,17.3942308 15.2458444,17.3942308 C17.9755153,17.3942308 20.2741855,19.6568395 20.2741855,22.3438086 C20.2741855,25.0306669 17.9755153,27.2933865 15.2458444,27.2933865 L15.2458444,27.2933865 Z" id="Shape" fill="#FFFFFF"></path>
            <path d="M19.2604167,4.85294118 L3.13541667,4.85294118" id="Line" stroke="#FFFFFF" stroke-linecap="square"></path>
            <path d="M16.5729167,7.5 L0.447916667,7.5" id="Line" stroke="#FFFFFF" stroke-linecap="square"></path>
        </g>
    </g>
</svg>
